<mxfile host="app.diagrams.net" modified="2023-05-11T16:51:24.075Z" agent="Mozilla/5.0 (Windows NT 10.0; Win64; x64) AppleWebKit/537.36 (KHTML, like Gecko) Chrome/113.0.0.0 Safari/537.36" version="21.2.9" etag="02cq2w2o1fVPLQex94Sz" type="github">
  <diagram name="Seite-1" id="oXtRfpTFq970BzfN9kNt">
    <mxGraphModel>
      <root>
        <mxCell id="0" />
        <mxCell id="1" parent="0" />
      </root>
    </mxGraphModel>
  </diagram>
</mxfile>
